<svg xmlns="http://www.w3.org/2000/svg" xmlns:xlink="http://www.w3.org/1999/xlink" viewBox="0 0 1024 1024"><defs><style>.a{fill:none;}.b{fill:url(#a);}.c{fill:url(#b);}.d{fill:url(#c);}.e{fill:url(#d);}</style><linearGradient id="a" x1="198.64" y1="271.87" x2="1024" y2="271.87" gradientUnits="userSpaceOnUse"><stop offset="0" stop-color="#1e8496"/><stop offset="0.08" stop-color="#3993a3"/><stop offset="0.23" stop-color="#63abb8"/><stop offset="0.38" stop-color="#86bfc9"/><stop offset="0.53" stop-color="#a1ced6"/><stop offset="0.68" stop-color="#b5d9df"/><stop offset="0.84" stop-color="#c0e0e5"/><stop offset="1" stop-color="#c4e2e7"/></linearGradient><linearGradient id="b" x1="-46.03" y1="591.3" x2="238.77" y2="400.61" xlink:href="#a"/><linearGradient id="c" x1="715.41" y1="314.34" x2="894.68" y2="784.34" xlink:href="#a"/><linearGradient id="d" x1="842.06" y1="810.48" x2="288.63" y2="770.04" xlink:href="#a"/></defs><title>ORGA transparent</title><polygon class="a" points="197.6 259.2 146.3 294.7 198.6 259.2 197.6 259.2"/><polygon class="a" points="198.6 259.2 146.3 294.7 146.3 729.3 197.6 764.8 825.2 764.8 877.7 729.3 877.7 295.6 826.4 259.2 198.6 259.2"/><polygon class="a" points="826.4 259.2 877.7 295.6 877.7 294.7 826.4 259.2"/><polygon class="a" points="826.4 764.8 877.7 729.3 825.2 764.8 826.4 764.8"/><path class="b" d="M826.4,259.2l51.3,35.5v.9l146.3,104V310c0-91.2-78-165.9-173.3-165.9H368.4L198.6,259.2Z"/><path class="c" d="M146.3,729.3V294.7l51.3-35.5h1L368.4,144.1H173.3C78,144.1,0,218.8,0,310V630.2L197.6,764.8Z"/><path class="d" d="M877.7,295.6V729.3l-51.3,35.5h-1.2L655.1,879.9H850.7C946,879.9,1024,805.2,1024,714V399.6Z"/><path class="e" d="M197.6,764.8,0,630.2V714c0,91.2,78,165.9,173.3,165.9H655.1L825.2,764.8Z"/></svg>