<?xml version="1.0" standalone="no"?>
<!DOCTYPE svg PUBLIC "-//W3C//DTD SVG 20010904//EN"
 "http://www.w3.org/TR/2001/REC-SVG-20010904/DTD/svg10.dtd">
<svg version="1.0" xmlns="http://www.w3.org/2000/svg"
 width="700.000000pt" height="700.000000pt" viewBox="0 0 700.000000 700.000000"
 preserveAspectRatio="xMidYMid meet">
<metadata>
Created by potrace 1.14, written by Peter Selinger 2001-2017
</metadata>
<g transform="translate(0.000000,700.000000) scale(0.100000,-0.100000)"
fill="#000000" stroke="none">
<path d="M1100 6012 c-169 -17 -294 -50 -427 -112 -135 -64 -239 -136 -343
-240 -129 -128 -230 -293 -279 -454 -21 -67 -25 -83 -39 -161 -9 -53 -9 -3025
0 -3091 32 -218 148 -443 318 -614 190 -191 425 -307 705 -346 83 -12 3449
-11 3457 1 5 6 8 6 8 0 0 -12 1382 -13 1470 -1 308 41 606 209 792 446 83 105
182 302 203 406 33 159 33 152 34 1659 0 1443 0 1493 -19 1580 -35 159 -81
271 -168 403 -97 148 -271 305 -427 385 -76 39 -182 83 -220 92 -72 17 -156
35 -195 41 -40 6 -4807 13 -4870 6z m4687 -879 c76 -53 155 -106 176 -119 l37
-24 0 -1489 0 -1488 -67 -46 c-38 -25 -117 -79 -177 -121 l-109 -75 -2147 0
-2146 0 -148 102 c-82 56 -160 109 -175 118 l-26 16 -3 1489 -2 1490 177 122
176 121 2148 0 2147 0 139 -96z"/>
</g>
</svg>
