<?xml version="1.0" encoding="UTF-8"?>
<svg id="Ebene_1" xmlns="http://www.w3.org/2000/svg" xmlns:xlink="http://www.w3.org/1999/xlink" version="1.1" viewBox="0 0 1024 1024">
  <!-- Generator: Adobe Illustrator 30.0.0, SVG Export Plug-In . SVG Version: 2.1.1 Build 123)  -->
  <defs>
    <style>
      .st0 {
        fill: none;
      }

      .st1 {
        fill: url(#Unbenannter_Verlauf);
      }

      .st2 {
        fill: url(#Unbenannter_Verlauf_2);
      }

      .st3 {
        fill: url(#Unbenannter_Verlauf_4);
      }

      .st4 {
        fill: url(#Unbenannter_Verlauf_3);
      }

      .st5 {
        fill: #2f626d;
      }

      .st6 {
        fill: #c4e2e7;
      }

      .st7 {
        fill: #fff;
      }
    </style>
    <linearGradient id="Unbenannter_Verlauf" data-name="Unbenannter Verlauf" x1="286.8" y1="783.7" x2="880" y2="783.7" gradientTransform="translate(0 1023.6) scale(1 -1)" gradientUnits="userSpaceOnUse">
      <stop offset="0" stop-color="#1e8496"/>
      <stop offset="0" stop-color="#3993a3"/>
      <stop offset=".2" stop-color="#63abb8"/>
      <stop offset=".4" stop-color="#86bfc9"/>
      <stop offset=".5" stop-color="#a1ced6"/>
      <stop offset=".7" stop-color="#b5d9df"/>
      <stop offset=".8" stop-color="#c0e0e5"/>
      <stop offset="1" stop-color="#c4e2e7"/>
    </linearGradient>
    <linearGradient id="Unbenannter_Verlauf_2" data-name="Unbenannter Verlauf 2" x1="108.3" y1="546" x2="317.3" y2="685.9" gradientTransform="translate(0 1023.6) scale(1 -1)" gradientUnits="userSpaceOnUse">
      <stop offset="0" stop-color="#1e8496"/>
      <stop offset="0" stop-color="#3993a3"/>
      <stop offset=".2" stop-color="#63abb8"/>
      <stop offset=".4" stop-color="#86bfc9"/>
      <stop offset=".5" stop-color="#a1ced6"/>
      <stop offset=".7" stop-color="#b5d9df"/>
      <stop offset=".8" stop-color="#c0e0e5"/>
      <stop offset="1" stop-color="#c4e2e7"/>
    </linearGradient>
    <linearGradient id="Unbenannter_Verlauf_3" data-name="Unbenannter Verlauf 3" x1="654.1" y1="752.2" x2="788.6" y2="399.6" gradientTransform="translate(0 1023.6) scale(1 -1)" gradientUnits="userSpaceOnUse">
      <stop offset="0" stop-color="#1e8496"/>
      <stop offset="0" stop-color="#3993a3"/>
      <stop offset=".2" stop-color="#63abb8"/>
      <stop offset=".4" stop-color="#86bfc9"/>
      <stop offset=".5" stop-color="#a1ced6"/>
      <stop offset=".7" stop-color="#b5d9df"/>
      <stop offset=".8" stop-color="#c0e0e5"/>
      <stop offset="1" stop-color="#c4e2e7"/>
    </linearGradient>
    <linearGradient id="Unbenannter_Verlauf_4" data-name="Unbenannter Verlauf 4" x1="749.3" y1="381.1" x2="351.3" y2="410.1" gradientTransform="translate(0 1023.6) scale(1 -1)" gradientUnits="userSpaceOnUse">
      <stop offset="0" stop-color="#1e8496"/>
      <stop offset="0" stop-color="#3993a3"/>
      <stop offset=".2" stop-color="#63abb8"/>
      <stop offset=".4" stop-color="#86bfc9"/>
      <stop offset=".5" stop-color="#a1ced6"/>
      <stop offset=".7" stop-color="#b5d9df"/>
      <stop offset=".8" stop-color="#c0e0e5"/>
      <stop offset="1" stop-color="#c4e2e7"/>
    </linearGradient>
  </defs>
  <rect class="st5" x="0" y="0" width="1024" height="1024" rx="258" ry="258"/>
  <polygon class="st0" points="286 230.4 249.1 257 286.8 230.4 286 230.4"/>
  <polygon class="st0" points="286.8 230.4 249.1 257 249.1 583.4 286 610.1 737.1 610.1 774.9 583.4 774.9 257.8 738 230.4 286.8 230.4"/>
  <polygon class="st0" points="738 230.4 774.9 257.8 774.9 257 738 230.4"/>
  <polygon class="st0" points="738 610.1 774.9 583.4 737.1 610.1 738 610.1"/>
  <path class="st1" d="M738,230.4l36.9,26.6v.8l105.1,78v-67.2c0-68.6-56-124.6-124.6-124.6h-346.6l-122,86.4h451.2Z"/>
  <path class="st2" d="M249.1,583.4v-326.4l36.9-26.6h.8l122-86.4h-140.2c-68.6,0-124.6,56-124.6,124.6v240.4l142,101.1-36.9-26.7Z"/>
  <path class="st4" d="M774.9,257.8v325.6l-36.9,26.7h-.9l-122.3,86.3h140.6c68.6,0,124.6-56,124.6-124.5v-236.1l-105.1-78Z"/>
  <path class="st3" d="M286,610.1l-142-101.1v62.9c0,68.5,56,124.5,124.6,124.5h346.2l122.3-86.3h-451.1Z"/>
  <path class="st6" d="M575.5,770.9h15.3l1.3,14.1h.7c2.4-4.7,5.9-8.8,10.2-11.9,3.6-2.6,7.9-4,12.3-4.1,3.1-.1,6.2.4,9.1,1.6l-3.3,16.2-3.8-1c-1.5-.2-2.9-.3-4.4-.3-3.2,0-6.4,1.2-9.9,3.6s-6.4,6.7-8.9,12.8v48.6h-18.6v-79.6Z"/>
  <path class="st6" d="M629.1,810.8c-.1-6,.9-11.9,3.1-17.5,1.8-4.9,4.5-9.3,8.1-13.1,3.3-3.5,7.3-6.4,11.8-8.3,4.3-1.9,8.9-2.9,13.6-2.9,4.9-.1,9.7.8,14.2,2.7,4,1.8,7.5,4.5,10.3,7.8,2.9,3.5,5,7.6,6.3,12,1.4,4.9,2.2,10.1,2.1,15.2,0,3-.2,5.9-.8,8.8h-50.6c.9,7.2,3.4,12.8,7.6,16.7s9.4,5.8,15.9,5.8c3.3,0,6.5-.5,9.6-1.6,3.1-1,6.1-2.5,8.9-4.2l6.3,11.6c-3.9,2.6-8.2,4.7-12.6,6.2-4.7,1.6-9.6,2.4-14.6,2.4-5.3,0-10.5-.9-15.4-2.8-4.7-1.8-8.9-4.6-12.5-8.2-3.6-3.8-6.5-8.2-8.3-13.1-2.1-5.6-3.1-11.5-3-17.5ZM682.4,803.6c0-6.3-1.3-11.3-4-14.9s-6.7-5.3-12.2-5.3c-4.7,0-9.2,1.8-12.5,5.1-3.6,3.4-5.8,8.4-6.6,15.1h35.3Z"/>
  <path class="st6" d="M716.4,770.9h15.4l1.3,10.7h.6c3.5-3.4,7.4-6.3,11.6-8.9,4.4-2.5,9.4-3.8,14.5-3.7,8.5,0,14.8,2.7,18.6,8.2s5.9,13.2,5.9,23.4v49.9h-18.7v-47.5c0-6.6-.9-11.2-2.9-13.9s-5.1-4.1-9.5-4.1c-3.2,0-6.4.8-9.2,2.5-3.2,2.2-6.2,4.7-9,7.4v55.6h-18.6v-79.6Z"/>
  <path class="st6" d="M803.7,829.1c0-8.6,3.7-15.1,11.2-19.8s19.3-7.9,35.6-9.7c0-2-.2-4-.8-5.9-.5-1.8-1.3-3.5-2.5-5-1.1-1.5-2.7-2.7-4.4-3.4-2.1-1-4.4-1.4-6.7-1.3-4,0-7.9.8-11.6,2.3-3.7,1.5-7.3,3.4-10.7,5.5l-6.8-12.5c4.7-2.9,9.6-5.3,14.8-7.2,5.7-2.1,11.7-3.2,17.7-3.1,10.1,0,17.5,2.9,22.4,8.8s7.3,14.4,7.3,25.5v47.2h-15.3l-1.4-8.8h-.5c-3.5,3-7.3,5.5-11.4,7.6-4.1,2.1-8.6,3.1-13.2,3.1-7.1,0-12.8-2.1-17.1-6.4s-6.6-9.9-6.6-16.9ZM821.9,827.6c0,3.6,1,6.2,3.1,7.8,2.4,1.7,5.3,2.5,8.2,2.4,3.1,0,6.2-.7,8.9-2.2,3-1.8,5.9-4,8.4-6.5v-17.8c-4.6.5-9.1,1.3-13.6,2.5-3.1.8-6,2.1-8.8,3.7-2,1.1-3.6,2.7-4.8,4.6-1,1.7-1.4,3.6-1.4,5.5Z"/>
  <path class="st7" d="M200,852.4c-6.8.1-13.6-1.2-20-3.7-5.9-2.4-11.1-6.1-15.4-10.8-4.4-5.1-7.8-10.9-9.9-17.3-2.5-7.5-3.7-15.4-3.6-23.3-.1-7.8,1.1-15.7,3.6-23.1,2.1-6.3,5.5-12,9.9-17,4.3-4.6,9.6-8.1,15.4-10.4,12.9-4.8,27.1-4.8,40,0,5.9,2.3,11.1,5.9,15.4,10.5,4.4,4.9,7.8,10.7,10,17,2.5,7.4,3.7,15.2,3.6,23,.1,7.9-1.1,15.8-3.6,23.3-2.1,6.4-5.5,12.3-10,17.3-4.3,4.7-9.5,8.4-15.4,10.8-6.4,2.5-13.2,3.8-20,3.7ZM200,828.4c6.4,0,11.4-2.8,15-8.3s5.5-13.2,5.5-22.8-1.9-17-5.5-22.3c-5.7-8.3-17.1-10.3-25.3-4.6-1.8,1.2-3.3,2.8-4.6,4.6-3.7,5.3-5.5,12.7-5.5,22.3s1.8,17.2,5.5,22.8,8.6,8.3,14.9,8.3Z"/>
  <path class="st7" d="M324.5,850.5l-18.2-35.4h-10.7v35.4h-27.8v-105.3h39.8c5.4,0,10.8.5,16.1,1.6,4.8.9,9.4,2.8,13.5,5.5,3.9,2.6,7,6.2,9.1,10.4,2.3,4.4,3.4,9.9,3.4,16.5s-1.5,13.8-4.6,18.8c-3,4.9-7.3,8.9-12.4,11.6l22.9,40.9h-31.1ZM295.6,793.1h10.1c11.2,0,16.8-4.6,16.8-13.9s-1.4-7.7-4.3-9.4-7-2.6-12.5-2.6h-10.1v25.9Z"/>
  <path class="st7" d="M365.3,798.6c-.1-8.1,1.3-16.1,4.2-23.6,2.6-6.5,6.5-12.4,11.5-17.3,4.9-4.7,10.6-8.4,16.9-10.8,6.6-2.5,13.5-3.7,20.5-3.7,6.8-.1,13.5,1.3,19.6,4.1,5.2,2.5,9.9,5.8,14.1,9.8l-15.2,17.2c-2.4-2.1-5-3.8-7.9-5.2-2.6-1.3-6.1-1.9-10.3-1.9-3.4,0-6.7.7-9.8,2.1-3.1,1.4-5.8,3.4-8,6-2.4,2.8-4.1,6-5.2,9.5-1.3,4.1-2,8.5-1.9,12.8,0,10,2.2,17.6,6.6,22.9s11.4,7.9,20.9,7.9c1.5,0,3-.1,4.5-.5,1.3-.2,2.5-.7,3.6-1.4v-14.6h-15.5v-22.7h40.2v50.2c-4.6,4-9.8,7.1-15.5,9.2-6.6,2.6-13.7,3.8-20.8,3.8-6.9,0-13.8-1.1-20.4-3.3-6.2-2.1-11.9-5.6-16.7-10.1-4.9-4.7-8.8-10.4-11.3-16.8-2.9-7.5-4.2-15.5-4.1-23.6Z"/>
  <path class="st7" d="M522.7,828.1h-29.4l-5.2,22.4h-28.5l32-105.3h33.7l32.1,105.3h-29.5l-5.2-22.4ZM517.7,806.6l-1.8-7.3c-1.3-5.1-2.6-10.6-3.9-16.6s-2.5-11.5-3.8-16.8h-.7c-1.2,5.4-2.4,11-3.6,16.9s-2.5,11.4-3.8,16.5l-1.8,7.3h19.4Z"/>
  <path class="st6" d="M693,901.3c0-3,.5-6.1,1.5-8.9.9-2.5,2.3-4.7,4.1-6.7,1.7-1.8,3.9-3.2,6.2-4.1,2.4-1,5-1.5,7.6-1.4,1.3,0,2.6.1,3.9.4,1.1.3,2.2.7,3.3,1.1.9.5,1.9,1.1,2.7,1.7l2.2,1.9-4,4.5c-1-1-2.1-1.8-3.4-2.4-1.5-.7-3.1-1.1-4.7-1-1.7,0-3.4.4-4.9,1.1-1.5.6-2.8,1.6-3.8,2.9-1.1,1.4-1.9,2.9-2.4,4.6-.6,2-.9,4-.9,6.1,0,4.7,1.1,8.3,3.1,10.9s5.2,3.9,9.3,3.9c1.1,0,2.2-.1,3.3-.4.9-.3,1.8-.7,2.5-1.4v-8.7h-7.6v-5.9h14.1v17.9c-1.6,1.4-3.5,2.6-5.5,3.4-2.5,1-5.1,1.4-7.7,1.4-2.6,0-5.1-.5-7.5-1.4-2.3-.9-4.3-2.2-6-4-1.8-1.9-3.1-4.1-3.9-6.6-1-2.8-1.6-5.9-1.5-8.9Z"/>
  <path class="st6" d="M733.5,891h5.9l.4,4.2h.3c1.3-1.3,2.7-2.5,4.2-3.5,3.2-1.9,7.3-1.9,10.5,0,1.3,1,2.4,2.4,3,4,1.4-1.4,3-2.7,4.6-3.9,1.5-1,3.4-1.5,5.2-1.5,3.2,0,5.6,1,7.2,3.1s2.2,5.1,2.2,9v19.1h-7.1v-18.2c0-2.5-.4-4.3-1.2-5.3-.8-1.1-2.1-1.7-3.5-1.6-1.9,0-4,1.3-6.4,3.8v21.3h-7.1v-18.2c0-2.5-.4-4.3-1.2-5.3-.8-1.1-2.1-1.7-3.5-1.6-1.9,0-4.1,1.3-6.4,3.8v21.3h-7.1v-30.5Z"/>
  <path class="st6" d="M785.7,877.7h7.2v11.3l-.2,5.1c1.2-1.2,2.6-2.1,4.2-2.8,3.1-1.4,6.6-1.3,9.7,0,1.5.7,2.7,1.8,3.7,3.1,1.1,1.4,2,3,2.4,4.8.5,2.1.8,4.2.8,6.4,0,2.4-.4,4.7-1.1,7-.6,1.9-1.6,3.7-2.9,5.2-1.1,1.3-2.5,2.4-4.1,3.2-1.5.7-3.2,1.1-4.9,1.1-1.5,0-3-.4-4.3-1-1.5-.7-2.8-1.6-4-2.8h-.2l-.6,3.1h-5.7v-43.8ZM792.9,913.8c.9.8,2,1.5,3.1,2,1,.3,2,.5,3,.5,2,0,3.9-1,5.1-2.6,1.3-1.8,2-4.4,2-7.9.1-2.5-.4-4.9-1.5-7.1-1.1-1.7-3-2.7-5-2.5-2.2,0-4.4,1.1-6.7,3.4v14.2Z"/>
  <path class="st6" d="M821.3,880.9h7.2v16.3h16.4v-16.3h7.2v40.6h-7.2v-18h-16.4v18h-7.2v-40.6Z"/>
</svg>