<?xml version="1.0" encoding="UTF-8" standalone="no"?><!DOCTYPE svg PUBLIC "-//W3C//DTD SVG 1.1//EN" "http://www.w3.org/Graphics/SVG/1.1/DTD/svg11.dtd"><svg width="100%" height="100%" viewBox="0 0 4267 4267" version="1.1" xmlns="http://www.w3.org/2000/svg" xmlns:xlink="http://www.w3.org/1999/xlink" xml:space="preserve" xmlns:serif="http://www.serif.com/" style="fill-rule:evenodd;clip-rule:evenodd;stroke-linejoin:round;stroke-miterlimit:2;"><path d="M1191.67,960l-153.75,110.833l157.083,-110.833l-3.333,0Z" style="fill:none;fill-rule:nonzero;"/><path d="M4216.67,561.811l-0,3143.04c-0,283.181 -229.907,513.088 -513.089,513.088l-3140.49,0c-283.181,0 -513.088,-229.907 -513.088,-513.088l-0,-3143.04c-0,-283.181 229.907,-513.088 513.088,-513.088l3140.49,0c283.182,0 513.089,229.907 513.089,513.088Z" style="fill:#fff;"/><path d="M1195,960l-157.083,110.833l-0,1360l153.75,111.25l1879.58,0l157.5,-111.25l0,-1356.67l-153.75,-114.167l-1880,0Z" style="fill:none;fill-rule:nonzero;"/><path d="M3075,960l153.75,114.167l0,-3.334l-153.75,-110.833Z" style="fill:none;fill-rule:nonzero;"/><path d="M3075,2542.08l153.75,-111.25l-157.5,111.25l3.75,0Z" style="fill:none;fill-rule:nonzero;"/><path d="M3075,960l153.75,110.833l0,3.334l437.917,325l-0,-280c-0,-285.834 -233.334,-519.167 -519.167,-519.167l-1444.17,-0l-508.333,360l1880,0Z" style="fill:url(#_Linear1);fill-rule:nonzero;"/><path d="M1037.92,2430.83l-0,-1360l153.75,-110.833l3.333,0l508.333,-360l-584.166,-0c-285.834,-0 -519.167,233.333 -519.167,519.167l0,1001.67l591.667,421.25l-153.75,-111.25Z" style="fill:url(#_Linear2);fill-rule:nonzero;"/><path d="M3228.75,1074.17l0,1356.67l-153.75,111.25l-3.75,0l-509.583,359.584l585.833,-0c285.833,-0 519.167,-233.334 519.167,-518.75l-0,-983.75l-437.917,-325Z" style="fill:url(#_Linear3);fill-rule:nonzero;"/><path d="M1191.67,2542.08l-591.667,-421.25l0,262.084c0,285.416 233.333,518.75 519.167,518.75l1442.5,-0l509.583,-359.584l-1879.58,0Z" style="fill:url(#_Linear4);fill-rule:nonzero;"/><path d="M2790,3424.17l-148.75,-0l-34.167,119.583l-79.583,0l143.75,-441.667l91.667,0l143.75,441.667l-82.5,0l-34.167,-119.583Zm-17.5,-61.667l-15.833,-53.75c-7.084,-23.333 -13.75,-47.5 -20.417,-72.083c-6.667,-24.584 -12.917,-49.584 -19.167,-73.75l-2.916,-0l-18.75,73.75c-6.25,24.583 -12.917,48.75 -20.417,72.083l-15.417,53.75l112.917,0Z" style="fill:#1e8496;fill-rule:nonzero;"/><path d="M3032.08,3570.42l0,104.166l-77.5,0l0,-462.5l64.167,0l5.417,35l2.5,0c14.316,-11.807 29.981,-21.877 46.666,-30c16.486,-8.514 34.779,-12.945 53.334,-12.916c18.993,-0.474 37.834,3.522 55,11.666c16.104,8.025 30.094,19.731 40.833,34.167c11.874,16.004 20.637,34.096 25.833,53.333c6.092,22.684 9.036,46.098 8.75,69.584c0.356,25.783 -3.732,51.437 -12.083,75.833c-6.742,20.442 -17.351,39.398 -31.25,55.833c-12.328,14.746 -27.673,26.681 -45,35c-16.681,7.876 -34.887,12.001 -53.333,12.084c-14.955,-0.134 -29.717,-3.398 -43.334,-9.584c-15.293,-6.713 -29.482,-15.704 -42.083,-26.666l2.083,55Zm0,-110.417c10.492,9.178 22.468,16.505 35.417,21.667c10.173,3.635 20.866,5.605 31.667,5.833c22.083,0 40.416,-9.583 55.416,-28.75c15,-19.167 22.084,-47.5 22.084,-85.417c-0,-37.916 -5.417,-59.166 -16.667,-77.5c-11.25,-18.333 -29.583,-27.5 -55,-27.5c-25.417,0 -47.5,12.084 -72.917,37.084l0,154.583Z" style="fill:#1e8496;fill-rule:nonzero;"/><path d="M3412.92,3570.42l-0,104.166l-77.5,0l-0,-462.5l64.166,0l5.417,35l2.5,0c14.316,-11.807 29.981,-21.877 46.667,-30c16.485,-8.514 34.778,-12.945 53.333,-12.916c18.985,-0.383 37.805,3.609 55,11.666c16.104,8.025 30.094,19.731 40.833,34.167c11.743,16.025 20.366,34.119 25.417,53.333c6.092,22.684 9.036,46.098 8.75,69.584c0.49,25.759 -3.457,51.412 -11.667,75.833c-6.905,20.369 -17.498,39.296 -31.25,55.833c-12.561,14.675 -28.025,26.592 -45.416,35c-16.663,7.928 -34.881,12.055 -53.334,12.084c-14.815,-0.179 -29.432,-3.443 -42.916,-9.584c-15.294,-6.713 -29.483,-15.704 -42.084,-26.666l2.084,55Zm-0,-110.417c10.284,9.247 22.137,16.584 35,21.667c10.182,3.6 20.869,5.569 31.666,5.833c22.084,0 40.834,-9.583 55.417,-28.75c14.583,-19.167 22.5,-47.5 22.5,-85.417c0,-37.916 -5.833,-59.166 -17.083,-77.5c-11.25,-18.333 -29.584,-27.5 -54.584,-27.5c-25,0 -47.916,12.084 -72.916,37.084l-0,154.583Z" style="fill:#1e8496;fill-rule:nonzero;"/><path d="M833.333,3551.67c-28.524,0.441 -56.854,-4.8 -83.333,-15.417c-24.447,-10.08 -46.361,-25.449 -64.167,-45c-18.33,-21.099 -32.345,-45.59 -41.25,-72.083c-10.421,-31.288 -15.492,-64.11 -15,-97.084c-0.503,-32.702 4.57,-65.252 15,-96.25c8.903,-26.118 22.928,-50.2 41.25,-70.833c17.885,-19.054 39.812,-33.862 64.167,-43.333c53.745,-19.979 112.922,-19.979 166.667,-0c24.435,9.516 46.382,24.479 64.166,43.75c18.509,20.569 32.681,44.662 41.667,70.833c10.463,30.846 15.538,63.265 15,95.833c0.493,32.974 -4.578,65.796 -15,97.084c-8.876,26.595 -23.051,51.118 -41.667,72.083c-17.72,19.646 -39.658,35.032 -64.166,45c-26.492,10.574 -54.813,15.813 -83.334,15.417Zm0,-100c26.667,-0 47.5,-11.667 62.5,-34.584c15,-22.916 22.917,-55 22.917,-95c0,-40 -7.917,-70.833 -22.917,-92.916c-14.158,-20.393 -37.465,-32.585 -62.291,-32.585c-24.827,-0 -48.133,12.192 -62.292,32.585c-15.417,22.083 -22.917,52.916 -22.917,92.916c0,40 7.5,71.667 22.917,95c15.417,23.334 35.833,34.584 62.083,34.584Z" style="fill:#4e4d4d;fill-rule:nonzero;"/><path d="M1352.08,3543.75l-75.833,-147.5l-44.583,0l-0,147.5l-115.834,0l0,-438.75l165.834,0c22.534,-0.155 45.02,2.079 67.083,6.667c20.053,3.937 39.155,11.719 56.25,22.916c16.084,11.022 29.127,25.929 37.917,43.334c9.583,18.333 14.166,41.25 14.166,68.75c0,27.5 -6.25,57.5 -19.166,78.333c-12.696,20.353 -30.514,37.021 -51.667,48.333l95.417,170.417l-129.584,0Zm-120.416,-239.167l42.083,0c46.667,0 70,-19.166 70,-57.916c0,-19.167 -5.833,-32.084 -17.917,-39.167c-12.083,-7.083 -29.166,-10.833 -52.083,-10.833l-42.083,-0l-0,107.916Z" style="fill:#4e4d4d;fill-rule:nonzero;"/><path d="M1522.08,3327.5c-0.566,-33.599 5.377,-66.992 17.5,-98.333c10.739,-27.123 27.065,-51.684 47.917,-72.084c20.255,-19.521 44.193,-34.819 70.417,-45c27.313,-10.233 56.249,-15.456 85.416,-15.416c28.164,-0.57 56.093,5.273 81.667,17.083c21.569,10.504 41.387,24.278 58.75,40.833l-63.333,71.667c-9.896,-8.738 -20.978,-16.033 -32.917,-21.667c-10.833,-5.416 -25.417,-7.916 -42.917,-7.916c-14.088,-0.121 -28.031,2.867 -40.833,8.75c-12.782,5.834 -24.154,14.362 -33.333,25c-9.88,11.555 -17.258,25.033 -21.667,39.583c-5.545,17.223 -8.22,35.242 -7.917,53.333c0,41.667 9.167,73.334 27.5,95.417c18.334,22.083 47.5,32.917 87.084,32.917c6.314,0.13 12.618,-0.571 18.75,-2.084c5.309,-1.027 10.391,-3.003 15,-5.833l-0,-60.833l-64.584,-0l0,-94.584l167.5,0l0,209.167c-18.966,16.669 -40.866,29.668 -64.583,38.333c-27.645,10.646 -57.043,16.017 -86.667,15.834c-28.905,0.243 -57.645,-4.406 -85,-13.75c-25.987,-8.781 -49.739,-23.146 -69.583,-42.084c-20.603,-19.626 -36.673,-43.518 -47.083,-70c-11.891,-31.394 -17.689,-64.768 -17.084,-98.333Z" style="fill:#4e4d4d;fill-rule:nonzero;"/><path d="M2177.92,3450.42l-122.5,-0l-21.667,93.333l-118.75,0l133.333,-438.75l140.417,0l133.75,438.75l-122.917,0l-21.666,-93.333Zm-20.834,-89.584l-7.5,-30.416c-5.416,-21.25 -10.833,-44.167 -16.25,-69.167c-5.416,-25 -10.416,-47.917 -15.833,-70l-2.917,0c-5,22.5 -10,45.833 -15,70.417c-5,24.583 -10.416,47.5 -15.833,68.75l-7.5,30.416l80.833,0Z" style="fill:#4e4d4d;fill-rule:nonzero;"/><defs><linearGradient id="_Linear1" x1="0" y1="0" x2="1" y2="0" gradientUnits="userSpaceOnUse" gradientTransform="matrix(2471.88,0,0,2471.88,1194.83,999.625)"><stop offset="0" style="stop-color:#1e8496;stop-opacity:1"/><stop offset="0.08" style="stop-color:#3993a3;stop-opacity:1"/><stop offset="0.23" style="stop-color:#63abb8;stop-opacity:1"/><stop offset="0.38" style="stop-color:#86bfc9;stop-opacity:1"/><stop offset="0.53" style="stop-color:#a1ced6;stop-opacity:1"/><stop offset="0.68" style="stop-color:#b5d9df;stop-opacity:1"/><stop offset="0.84" style="stop-color:#c0e0e5;stop-opacity:1"/><stop offset="1" style="stop-color:#c4e2e7;stop-opacity:1"/></linearGradient><linearGradient id="_Linear2" x1="0" y1="0" x2="1" y2="0" gradientUnits="userSpaceOnUse" gradientTransform="matrix(230586,-271775,271775,230586,120091,928100)"><stop offset="0" style="stop-color:#1e8496;stop-opacity:1"/><stop offset="0.08" style="stop-color:#3993a3;stop-opacity:1"/><stop offset="0.23" style="stop-color:#63abb8;stop-opacity:1"/><stop offset="0.38" style="stop-color:#86bfc9;stop-opacity:1"/><stop offset="0.53" style="stop-color:#a1ced6;stop-opacity:1"/><stop offset="0.68" style="stop-color:#b5d9df;stop-opacity:1"/><stop offset="0.84" style="stop-color:#c0e0e5;stop-opacity:1"/><stop offset="1" style="stop-color:#c4e2e7;stop-opacity:1"/></linearGradient><linearGradient id="_Linear3" x1="0" y1="0" x2="1" y2="0" gradientUnits="userSpaceOnUse" gradientTransform="matrix(148611,644322,-644322,148611,725309,497076)"><stop offset="0" style="stop-color:#1e8496;stop-opacity:1"/><stop offset="0.08" style="stop-color:#3993a3;stop-opacity:1"/><stop offset="0.23" style="stop-color:#63abb8;stop-opacity:1"/><stop offset="0.38" style="stop-color:#86bfc9;stop-opacity:1"/><stop offset="0.53" style="stop-color:#a1ced6;stop-opacity:1"/><stop offset="0.68" style="stop-color:#b5d9df;stop-opacity:1"/><stop offset="0.84" style="stop-color:#c0e0e5;stop-opacity:1"/><stop offset="1" style="stop-color:#c4e2e7;stop-opacity:1"/></linearGradient><linearGradient id="_Linear4" x1="0" y1="0" x2="1" y2="0" gradientUnits="userSpaceOnUse" gradientTransform="matrix(-983557,-22706.6,22706.6,-983557,1.85223e+06,503845)"><stop offset="0" style="stop-color:#1e8496;stop-opacity:1"/><stop offset="0.08" style="stop-color:#3993a3;stop-opacity:1"/><stop offset="0.23" style="stop-color:#63abb8;stop-opacity:1"/><stop offset="0.38" style="stop-color:#86bfc9;stop-opacity:1"/><stop offset="0.53" style="stop-color:#a1ced6;stop-opacity:1"/><stop offset="0.68" style="stop-color:#b5d9df;stop-opacity:1"/><stop offset="0.84" style="stop-color:#c0e0e5;stop-opacity:1"/><stop offset="1" style="stop-color:#c4e2e7;stop-opacity:1"/></linearGradient></defs></svg>