<svg xmlns="http://www.w3.org/2000/svg" xmlns:xlink="http://www.w3.org/1999/xlink" viewBox="0 0 1024 1024"><defs><style>.a{fill:none;}.b{fill:url(#a);}.c{fill:url(#b);}.d{fill:url(#c);}.e{fill:url(#d);}.f{fill:#1e8496;}.g{fill:#4e4d4d;}</style><linearGradient id="a" x1="286.76" y1="239.91" x2="880.01" y2="239.91" gradientUnits="userSpaceOnUse"><stop offset="0" stop-color="#1e8496"/><stop offset="0.08" stop-color="#3993a3"/><stop offset="0.23" stop-color="#63abb8"/><stop offset="0.38" stop-color="#86bfc9"/><stop offset="0.53" stop-color="#a1ced6"/><stop offset="0.68" stop-color="#b5d9df"/><stop offset="0.84" stop-color="#c0e0e5"/><stop offset="1" stop-color="#c4e2e7"/></linearGradient><linearGradient id="b" x1="108.3" y1="477.58" x2="317.29" y2="337.64" xlink:href="#a"/><linearGradient id="c" x1="654.07" y1="271.41" x2="788.56" y2="623.98" xlink:href="#a"/><linearGradient id="d" x1="749.27" y1="642.55" x2="351.27" y2="613.47" xlink:href="#a"/></defs><title>ORGA App hell</title><polygon class="a" points="286 230.4 249.1 257 286.8 230.4 286 230.4"/><polygon class="a" points="286.8 230.4 249.1 257 249.1 583.4 286 610.1 737.1 610.1 774.9 583.4 774.9 257.8 738 230.4 286.8 230.4"/><polygon class="a" points="738 230.4 774.9 257.8 774.9 257 738 230.4"/><polygon class="a" points="738 610.1 774.9 583.4 737.1 610.1 738 610.1"/><path class="b" d="M738,230.4,774.9,257v.8l105.1,78V268.6C880,200,824,144,755.4,144H408.8l-122,86.4Z"/><path class="c" d="M249.1,583.4V257L286,230.4h.8l122-86.4H268.6C200,144,144,200,144,268.6V509L286,610.1Z"/><path class="d" d="M774.9,257.8V583.4L738,610.1h-.9L614.8,696.4H755.4c68.6,0,124.6-56,124.6-124.5V335.8Z"/><path class="e" d="M286,610.1,144,509v62.9c0,68.5,56,124.5,124.6,124.5H614.8l122.3-86.3Z"/><path class="f" d="M669.6,821.8H633.9l-8.2,28.7H606.6l34.5-106h22l34.5,106H677.8ZM665.4,807l-3.8-12.9c-1.7-5.6-3.3-11.4-4.9-17.3s-3.1-11.9-4.6-17.7h-.7l-4.5,17.7c-1.5,5.9-3.1,11.7-4.9,17.3L638.3,807Z"/><path class="f" d="M727.7,856.9v25H709.1v-111h15.4l1.3,8.4h.6a56.4,56.4,0,0,1,11.2-7.2,27.8,27.8,0,0,1,12.8-3.1,29.1,29.1,0,0,1,13.2,2.8,27.5,27.5,0,0,1,9.8,8.2,38.2,38.2,0,0,1,6.2,12.8,61.5,61.5,0,0,1,2.1,16.7,53.9,53.9,0,0,1-2.9,18.2,40.3,40.3,0,0,1-7.5,13.4,32.3,32.3,0,0,1-10.8,8.4,30.3,30.3,0,0,1-12.8,2.9,25.7,25.7,0,0,1-10.4-2.3,39.7,39.7,0,0,1-10.1-6.4Zm0-26.5a29.5,29.5,0,0,0,8.5,5.2,24.1,24.1,0,0,0,7.6,1.4c5.3,0,9.7-2.3,13.3-6.9s5.3-11.4,5.3-20.5-1.3-14.2-4-18.6-7.1-6.6-13.2-6.6-11.4,2.9-17.5,8.9Z"/><path class="f" d="M819.1,856.9v25H800.5v-111h15.4l1.3,8.4h.6a56.4,56.4,0,0,1,11.2-7.2,27.8,27.8,0,0,1,12.8-3.1,29.7,29.7,0,0,1,13.2,2.8,27.5,27.5,0,0,1,9.8,8.2,38,38,0,0,1,6.1,12.8,61.5,61.5,0,0,1,2.1,16.7,53.9,53.9,0,0,1-2.8,18.2,42.1,42.1,0,0,1-7.5,13.4,33.6,33.6,0,0,1-10.9,8.4,29.9,29.9,0,0,1-12.8,2.9,25.6,25.6,0,0,1-10.3-2.3,39.7,39.7,0,0,1-10.1-6.4Zm0-26.5a27.9,27.9,0,0,0,8.4,5.2,24.6,24.6,0,0,0,7.6,1.4c5.3,0,9.8-2.3,13.3-6.9s5.4-11.4,5.4-20.5-1.4-14.2-4.1-18.6-7.1-6.6-13.1-6.6-11.5,2.9-17.5,8.9Z"/><path class="g" d="M200,852.4a51.6,51.6,0,0,1-20-3.7,43,43,0,0,1-15.4-10.8,51.3,51.3,0,0,1-9.9-17.3,70.4,70.4,0,0,1-3.6-23.3,69.1,69.1,0,0,1,3.6-23.1,49.8,49.8,0,0,1,9.9-17A42,42,0,0,1,180,746.8a57.4,57.4,0,0,1,40,0,41.4,41.4,0,0,1,15.4,10.5,49.4,49.4,0,0,1,10,17,68.1,68.1,0,0,1,3.6,23,70.4,70.4,0,0,1-3.6,23.3,49.8,49.8,0,0,1-10,17.3A42.1,42.1,0,0,1,220,848.7,52,52,0,0,1,200,852.4Zm0-24c6.4,0,11.4-2.8,15-8.3s5.5-13.2,5.5-22.8-1.9-17-5.5-22.3a18.2,18.2,0,0,0-29.9,0c-3.7,5.3-5.5,12.7-5.5,22.3s1.8,17.2,5.5,22.8S193.7,828.4,200,828.4Z"/><path class="g" d="M324.5,850.5l-18.2-35.4H295.6v35.4H267.8V745.2h39.8a76.5,76.5,0,0,1,16.1,1.6,38,38,0,0,1,13.5,5.5,27.8,27.8,0,0,1,9.1,10.4c2.3,4.4,3.4,9.9,3.4,16.5s-1.5,13.8-4.6,18.8a32.9,32.9,0,0,1-12.4,11.6l22.9,40.9Zm-28.9-57.4h10.1c11.2,0,16.8-4.6,16.8-13.9,0-4.6-1.4-7.7-4.3-9.4s-7-2.6-12.5-2.6H295.6Z"/><path class="g" d="M365.3,798.6a62.5,62.5,0,0,1,4.2-23.6A49.9,49.9,0,0,1,381,757.7a50.9,50.9,0,0,1,16.9-10.8,58.2,58.2,0,0,1,20.5-3.7,44.6,44.6,0,0,1,19.6,4.1,55.9,55.9,0,0,1,14.1,9.8l-15.2,17.2a33.6,33.6,0,0,0-7.9-5.2c-2.6-1.3-6.1-1.9-10.3-1.9a23,23,0,0,0-9.8,2.1,23.4,23.4,0,0,0-8,6,26.4,26.4,0,0,0-5.2,9.5,39.6,39.6,0,0,0-1.9,12.8c0,10,2.2,17.6,6.6,22.9s11.4,7.9,20.9,7.9a17.3,17.3,0,0,0,4.5-.5,10.8,10.8,0,0,0,3.6-1.4V811.9H413.9V789.2h40.2v50.2a48.9,48.9,0,0,1-15.5,9.2,56.9,56.9,0,0,1-20.8,3.8,61.5,61.5,0,0,1-20.4-3.3A45.1,45.1,0,0,1,380.7,839a46.9,46.9,0,0,1-11.3-16.8A63.4,63.4,0,0,1,365.3,798.6Z"/><path class="g" d="M522.7,828.1H493.3l-5.2,22.4H459.6l32-105.3h33.7l32.1,105.3H527.9Zm-5-21.5-1.8-7.3c-1.3-5.1-2.6-10.6-3.9-16.6s-2.5-11.5-3.8-16.8h-.7c-1.2,5.4-2.4,11-3.6,16.9s-2.5,11.4-3.8,16.5l-1.8,7.3Z"/></svg>